<svg width="65" height="16" viewBox="0 0 65 16" fill="none" xmlns="http://www.w3.org/2000/svg">
<path d="M63.1263 2.59999C62.6663 2.59999 62.2863 2.21999 62.2863 1.75999C62.2863 1.13999 62.7862 0.679993 63.4062 0.679993C63.8663 0.679993 64.2463 1.05999 64.2463 1.51999C64.2463 2.11999 63.7663 2.59999 63.1263 2.59999ZM61.5662 15.2C61.1462 15.2 61.0462 14.92 61.0462 14.68C61.0462 14.54 61.0863 14.18 61.1463 13.74L62.3862 5.93999L62.2863 5.85999L60.1263 7.19999L59.9863 6.83999C61.3263 5.43999 62.3462 4.79999 62.8862 4.79999C63.3062 4.79999 63.4062 5.07999 63.4062 5.31999C63.4062 5.45999 63.3663 5.81999 63.3063 6.25999L62.0662 14.06L62.1663 14.14L64.3262 12.8L64.4662 13.16C63.1262 14.56 62.1062 15.2 61.5662 15.2Z" fill="#8C81FF"/>
<path d="M50.7898 15.2C49.2298 15.2 48.2098 13.84 48.2098 11.78C48.2098 7.83999 51.2098 4.79999 54.3098 4.79999C54.9298 4.79999 55.5898 4.95999 56.2098 5.19999L56.7098 4.79999L57.0098 4.99999L55.7698 14.06L55.8698 14.14L58.0298 12.8L58.1698 13.16C56.8298 14.56 55.8098 15.2 55.2698 15.2C54.8498 15.2 54.7498 14.92 54.7498 14.68C54.7498 14.54 54.7898 14.18 55.3898 10.32L55.2898 10.26C54.0498 13.5 52.5098 15.2 50.7898 15.2ZM51.0298 14.38C52.7898 14.38 55.1698 10.32 55.8498 6.05999C55.3698 5.81999 54.7898 5.57999 54.2498 5.41999C51.5698 5.91999 49.3098 8.43999 49.3098 11.78C49.3098 13.38 49.9698 14.38 51.0298 14.38Z" fill="#8C81FF"/>
<path d="M42.3153 15.2C41.0353 15.2 39.7153 14.8 38.8153 14.12L39.0153 12H39.4753L39.8753 12.96C40.2953 13.84 41.2353 14.4 42.3753 14.4C43.7353 14.4 44.6553 13.7 44.6553 12.6C44.6553 11.66 44.0553 11.08 42.0553 10.26C39.9153 9.42003 39.0353 8.50003 39.0353 7.30003C39.0353 5.80003 40.3953 4.78003 42.4353 4.78003C43.4753 4.78003 44.6553 5.06003 45.5953 5.48003L45.3953 7.46003H44.9353C44.6553 6.90003 44.4953 6.62003 44.2353 6.34003C43.8353 5.86003 43.1553 5.58003 42.4153 5.58003C41.1953 5.58003 40.3953 6.18003 40.3953 7.02003C40.3953 7.82003 41.0353 8.34003 42.9553 9.16003C45.1553 10.08 46.0353 11.06 46.0353 12.28C46.0353 14.04 44.5553 15.2 42.3153 15.2Z" fill="#8C81FF"/>
<path d="M30.2475 15H25.2275V14.48L26.0275 14.18C26.6275 13.94 26.7875 13.7 26.7875 13.06V7.92001C26.7875 7.10001 26.5875 6.76001 26.0075 6.64001L25.2675 6.48001V6.00001L28.1075 4.76001L28.5675 5.04001V7.00001C29.5475 5.60001 30.9075 4.76001 32.2875 4.76001C34.3675 4.76001 35.6675 6.22001 35.6675 8.62001V13.06C35.6675 13.7 35.8275 13.94 36.4075 14.18L37.2075 14.48V15H32.2075V14.48L33.0075 14.18C33.5475 13.96 33.7075 13.74 33.7075 13.06V9.04001C33.7075 7.30001 32.9075 6.38001 31.4475 6.38001C30.4475 6.38001 29.4275 6.96001 28.7475 7.86001V13.06C28.7475 13.74 28.8875 13.96 29.4475 14.18L30.2475 14.48V15Z" fill="#8C81FF"/>
<path d="M18.5172 15.2C15.4372 15.2 13.3372 13.14 13.3372 9.95999C13.3372 6.97999 15.5972 4.73999 18.5172 4.73999C21.6172 4.73999 23.6972 6.81999 23.6972 9.99999C23.6972 12.98 21.4372 15.2 18.5172 15.2ZM18.5172 14.1C20.0172 14.1 20.9172 12.58 20.9172 9.99999C20.9172 7.39999 20.0172 5.83999 18.5172 5.83999C17.0372 5.83999 16.1172 7.37999 16.1172 9.95999C16.1172 12.54 17.0372 14.1 18.5172 14.1Z" fill="#8C81FF"/>
<path d="M5.84 15.2C5.08 15.2 4.14 15 3.32 14.62L1.98 15.04L1.36 14.66V4.04C1.36 3.02 1.2 2.76 0.64 2.52L0 2.24V1.56L3.92 0L4.54 0.380001V6.24C5.42 5.26 6.46 4.72 7.56 4.72C9.92 4.72 11.68 6.72 11.68 9.52C11.68 13.06 9.42 15.2 5.84 15.2ZM6.1 13.96C7.36 13.96 8.26 12.52 8.26 10.4C8.26 8.22 7.44 7.02 6.04 7.02C5.52 7.02 4.92 7.3 4.54 7.74V12.16C4.6 13.34 5.18 13.96 6.1 13.96Z" fill="#8C81FF"/>
</svg>
