<svg width="245" height="41" viewBox="0 0 245 41" fill="none" xmlns="http://www.w3.org/2000/svg">
<path d="M20.5763 40.1992H11.9963V7.61922H-0.00374997V-0.000782251H32.5763V7.61922H20.5763V40.1992ZM45.0136 40.1992H36.4336V-0.000782251H45.0136V19.3192C45.9736 14.5192 48.7936 10.1992 54.8536 10.1992C60.4336 10.1992 63.8536 13.6192 63.8536 19.6792V40.1992H55.2736V22.6792C55.2736 19.0792 54.3136 16.8592 50.4136 16.8592C46.3336 16.8592 45.0136 19.1392 45.0136 23.9392V40.1992ZM78.2948 7.31922H69.7148V-0.000782251H78.2948V7.31922ZM78.2948 40.1992H69.7148V10.7992H78.2948V40.1992ZM92.9433 40.1992H84.3633V10.7992H92.9433V19.3192C93.9033 14.5192 96.7233 10.1992 102.783 10.1992C108.363 10.1992 111.783 13.6192 111.783 19.6792V40.1992H103.203V22.6792C103.203 19.0792 102.243 16.8592 98.3433 16.8592C94.2633 16.8592 92.9433 19.1392 92.9433 23.9392V40.1992ZM126.225 40.1992H117.645V-0.000782251H126.225V15.9592L125.805 23.6392L131.205 17.1592L137.385 10.7992H147.525L136.005 22.5592L147.465 40.1992H137.685L130.245 27.6592L126.225 31.8592V40.1992ZM159.922 40.1992H151.342V-0.000782251H170.002C178.702 -0.000782251 185.062 4.01922 185.062 12.5392C185.062 19.6792 180.202 23.3392 173.662 24.1192C176.842 24.9592 178.522 26.9392 180.262 29.7592L186.622 40.1992H176.722L169.942 28.7992C168.382 26.0992 166.582 25.1392 163.042 25.1392H159.922V40.1992ZM169.702 7.61922H159.922V18.2392H169.702C173.422 18.2392 176.062 16.7392 176.062 12.9592C176.062 9.05922 173.422 7.61922 169.702 7.61922ZM196.309 40.8592C191.749 40.8592 188.569 38.3992 188.569 33.6592C188.569 29.2192 191.389 26.6392 196.969 24.7192L205.969 21.3592C205.669 18.8992 204.529 17.5192 201.289 17.5192C197.569 17.5192 194.149 19.6192 192.109 22.5592L187.789 16.3192C190.729 13.1392 195.589 10.1992 201.889 10.1992C209.329 10.1992 213.649 14.1592 213.649 21.5392V31.6192C213.649 32.9392 214.129 33.3592 215.209 33.3592H216.949V40.1992H211.909C208.729 40.1992 205.849 38.7592 205.849 34.5592V32.5792C204.889 36.4192 202.309 40.8592 196.309 40.8592ZM196.489 32.3992C196.489 33.7792 197.449 34.5592 199.489 34.5592C203.569 34.5592 205.849 32.5192 205.849 28.9192V26.8792L199.609 29.4592C197.269 30.4192 196.489 31.2592 196.489 32.3992ZM229.584 7.31922H221.004V-0.000782251H229.584V7.31922ZM229.584 40.1992H221.004V10.7992H229.584V40.1992ZM244.232 40.1992H235.652V-0.000782251H244.232V40.1992Z" fill="#8C81FF"/>
</svg>
